<?xml version="1.0" encoding="utf-8"?>
<svg version="1.1" xmlns="http://www.w3.org/2000/svg" xmlns:xlink="http://www.w3.org/1999/xlink">

    <style>
      g { display: none }
      g:target { display: inline }
    </style>

<svg viewBox="0 0 22 30">
    <g id="icon-fire">
    <path d="M20.54 15.556c-.267-.596-.633-1.182-1.17-1.86-1.352-1.7-1.764-5.49-1.769-5.527a.457.457 0 00-.316-.386.465.465 0 00-.486.132c-1.613 1.804-.935 4.59-.568 5.704.1.305.21.664.289 1.028.595 2.94-.555 4.272-.825 4.54-.262.073-.44.037-.605-.14-.569-.623-.757-2.664-.49-5.323a5.437 5.437 0 00-.037-1.482c-.561-3.268-2.617-5.365-3.14-6.1-1.44-2.127-1.586-5.668-1.59-5.7a.458.458 0 00-.715-.36c-2.402 1.633-2.196 5.565-1.861 7.76.078.51.229 1.027.49 1.682.93 2.34-.183 5.364-.192 5.39-.01.028-.019.05-.023.078-.142.746-.38 1.191-.647 1.191a.314.314 0 01-.087-.014c-.325-.068-.495-.413-.5-.713-.018-3.877-3.909-5.182-3.95-5.196a.456.456 0 00-.486.137.447.447 0 00-.064.5c.046.095.192.513.092 1.99a16.978 16.978 0 01-.72 3.9C.244 19.807.39 22.666.4 22.802c.712 7.742 11.845 9.098 18.452 4.737.725-.478 1.316-1.023 1.751-1.623 2.439-3.364 1.004-7.932-.064-10.36zM3.603 22.95a.454.454 0 01-.431.477h-.027a.456.456 0 01-.459-.427c-.041-.663-.032-1.359.018-2.113a.463.463 0 01.49-.423.458.458 0 01.427.486c-.05.718-.06 1.373-.018 2zm.224-4.027a.455.455 0 01-.453.4c-.019 0-.037 0-.06-.005a.459.459 0 01-.399-.504l.22-1.755a.463.463 0 01.514-.395c.252.032.43.259.398.509l-.22 1.75zM17.438 6.219a.455.455 0 01-.383-.518c.03-.185.195-1.13.644-1.606a.46.46 0 01.648-.02c.185.171.194.459.02.642-.19.201-.351.777-.406 1.122a.458.458 0 01-.523.38zM.73 8.483C.641 8.145.423 7.587.213 7.405a.452.452 0 01-.042-.641.46.46 0 01.647-.042c.494.429.752 1.354.798 1.535a.454.454 0 01-.33.553.46.46 0 01-.558-.327z" fill="#FF6B09"/></g>
	</svg>

<svg viewBox="0 0 28 32">
		<g id='icon-campfire' >
<path d="M28.799 21.831c-.373-.836-.887-1.659-1.639-2.609-1.896-2.386-2.474-7.706-2.481-7.757a.642.642 0 00-.64-.573.652.652 0 00-.484.215v.001c-2.262 2.533-1.311 6.443-.797 8.006.141.427.296.931.405 1.442.835 4.127-.778 5.996-1.157 6.373-.366.102-.617.051-.848-.198-.797-.874-1.06-3.738-.688-7.47a7.66 7.66 0 00-.051-2.08c-.786-4.587-3.668-7.529-4.402-8.561-2.018-2.985-2.224-7.955-2.23-7.999a.641.641 0 00-1.002-.504c-3.368 2.29-3.078 7.808-2.609 10.889.109.714.321 1.442.688 2.36 1.305 3.285-.257 7.527-.27 7.566s-.026.07-.032.108c-.199 1.046-.533 1.671-.906 1.671a.428.428 0 01-.122-.019c-.456-.096-.694-.581-.7-1.002-.026-5.441-5.482-7.272-5.54-7.291a.64.64 0 00-.681.191.627.627 0 00-.09.702c.064.134.27.721.129 2.794a23.848 23.848 0 01-1.009 5.473C.345 27.795.55 31.807.563 31.998c.998 10.864 16.609 12.768 25.873 6.647 1.015-.67 1.844-1.435 2.455-2.277 3.419-4.721 1.407-11.131-.09-14.538zM5.053 32.21a.637.637 0 01-.604.67H4.41a.64.64 0 01-.643-.6 22.933 22.933 0 01.026-2.966.645.645 0 011.286.09 20.55 20.55 0 00-.026 2.807zm.315-5.652a.638.638 0 01-.636.561c-.026 0-.051 0-.084-.006a.643.643 0 01-.559-.708l.308-2.462a.65.65 0 01.72-.555.64.64 0 01.559.714l-.308 2.456zM24.451 8.727A.638.638 0 0123.914 8c.04-.259.272-1.586.902-2.253a.645.645 0 011.111.436.634.634 0 01-.174.437c-.267.283-.494 1.091-.57 1.575a.643.643 0 01-.733.533zM1.023 11.905C.9 11.431.594 10.648.301 10.393c-.267-.232-.294-.635-.06-.9s.639-.292.907-.059c.693.603 1.054 1.901 1.12 2.154a.644.644 0 01-1.246.317z" fill="#3D3D3D"/>
	</g>
	</svg>

	<svg viewBox="0 0 40 32">
		<g id='icon-check-mark' >
		<path d="M34.457 1.514a29.389 29.389 0 00-4.265 2.379c-2.731 1.797-5.228 3.936-7.57 6.218-2.341 2.287-4.52 4.735-6.581 7.28-.515.636-2.823 3.47-2.823 3.47L3.622 6.481-.001 16.523 12.976 32c1.26-2.551 2.473-5.07 3.662-7.258.296-.556.605-1.08.901-1.612 0 0 1.523-2.677 1.924-3.352 1.601-2.697 3.332-5.325 5.239-7.821 1.908-2.491 3.983-4.87 6.335-6.961a28.328 28.328 0 013.751-2.872c1.332-.848 2.747-1.591 4.261-2.125-1.575.31-3.111.848-4.592 1.514z" fill="#FF6B09"/>
	</g>
	</svg>
	
	
</svg>